<?xml version="1.0" standalone="no"?>
<!DOCTYPE svg PUBLIC "-//W3C//DTD SVG 20010904//EN"
 "http://www.w3.org/TR/2001/REC-SVG-20010904/DTD/svg10.dtd">
<svg version="1.0" xmlns="http://www.w3.org/2000/svg"
 width="736.000000pt" height="736.000000pt" viewBox="0 0 736.000000 736.000000"
 preserveAspectRatio="xMidYMid meet">
<metadata>
Created by potrace 1.16, written by Peter Selinger 2001-2019
</metadata>
<g transform="translate(0.000000,736.000000) scale(0.100000,-0.100000)"
fill="#000000" stroke="none">
<path d="M2500 5679 c-72 -14 -185 -75 -226 -122 -85 -98 -135 -256 -154 -493
-16 -199 11 -427 71 -614 26 -79 113 -257 141 -286 34 -38 84 -36 116 4 20 26
14 68 -19 124 -68 116 -125 293 -150 467 -15 107 -6 369 16 470 45 205 103
274 255 301 237 43 463 -135 610 -479 53 -123 87 -254 110 -421 23 -164 32
-183 104 -219 l48 -24 203 13 c111 7 228 9 258 6 113 -14 148 34 287 394 68
177 199 414 267 484 41 42 118 94 171 115 21 9 59 12 110 9 96 -5 161 -38 240
-118 111 -113 137 -194 137 -415 -1 -171 -21 -272 -81 -400 -36 -77 -36 -93
-1 -132 42 -47 97 -22 141 65 74 146 113 380 95 571 -18 193 -61 292 -179 412
-132 134 -279 193 -424 172 -175 -25 -331 -146 -441 -343 -89 -159 -137 -259
-206 -435 -35 -88 -71 -174 -81 -191 l-18 -31 -203 -8 c-111 -4 -215 -8 -232
-9 -27 -1 -30 2 -33 34 -16 204 -81 436 -175 625 -91 184 -179 290 -317 380
-145 95 -284 124 -440 94z"/>
<path d="M2658 5185 c-38 -21 -48 -67 -48 -225 0 -151 10 -254 41 -410 28
-139 43 -175 87 -202 64 -39 261 -35 344 8 15 8 37 33 49 56 32 62 23 197 -21
328 -44 130 -141 318 -197 380 -61 68 -95 86 -134 69 -23 -9 -36 -9 -55 0 -31
14 -33 14 -66 -4z m152 -175 c33 -42 127 -233 154 -313 22 -65 41 -180 33
-199 -4 -11 -25 -18 -70 -23 -99 -11 -99 -10 -119 75 -38 165 -64 500 -39 500
5 0 23 -18 41 -40z"/>
<path d="M4725 5009 c-38 -11 -75 -32 -101 -56 -40 -37 -124 -145 -124 -159 0
-4 -6 -15 -14 -23 -18 -22 -126 -227 -126 -241 0 -6 -9 -20 -20 -32 -45 -48
-11 -104 98 -161 118 -62 189 -62 270 2 54 43 146 177 214 312 36 72 42 93 42
150 1 54 -4 76 -29 124 -47 92 -108 116 -210 84z m81 -161 c14 -44 5 -80 -45
-173 -57 -108 -120 -198 -155 -220 -21 -14 -28 -14 -65 1 -22 9 -41 18 -41 21
0 2 27 55 60 116 116 215 223 326 246 255z"/>
<path d="M2138 3994 c-78 -68 -231 -228 -302 -314 -33 -41 -64 -79 -69 -85
-24 -29 -103 -160 -138 -227 -129 -254 -191 -524 -193 -833 -2 -455 105 -728
390 -992 118 -109 144 -130 249 -192 271 -161 651 -243 1174 -256 219 -5 703
30 900 65 79 14 85 13 99 -19 7 -17 42 -61 77 -99 106 -115 266 -182 430 -182
110 0 186 15 270 54 179 83 300 250 320 441 6 54 -6 137 -30 220 -5 17 10 33
82 87 285 213 386 454 400 954 11 386 -35 643 -159 889 -89 176 -175 285 -336
423 -79 67 -103 74 -146 41 -19 -15 -26 -30 -26 -53 0 -38 36 -90 56 -82 8 3
13 2 11 -3 -1 -4 39 -48 88 -97 50 -49 110 -117 133 -152 55 -81 134 -248 161
-337 91 -297 91 -813 0 -1097 -24 -75 -82 -175 -140 -241 -37 -43 -160 -149
-197 -171 -8 -5 -33 11 -69 43 -176 157 -445 201 -658 107 l-55 -25 -16 37
c-8 20 -47 114 -85 207 -130 316 -128 312 -161 326 -27 11 -36 10 -72 -9 -22
-11 -66 -32 -97 -45 l-57 -25 -35 82 c-65 150 -63 138 -23 190 31 42 56 99 56
133 0 7 -7 34 -16 60 -45 134 -212 197 -311 116 -80 -64 -107 -183 -62 -267
25 -47 31 -53 93 -97 56 -39 53 -34 106 -159 23 -52 44 -101 47 -108 3 -8 -16
-22 -53 -38 -33 -15 -87 -39 -120 -54 -109 -50 -118 -95 -53 -261 23 -57 61
-156 86 -219 24 -63 48 -124 53 -135 5 -11 30 -74 55 -140 25 -66 50 -131 56
-144 5 -13 8 -25 6 -27 -28 -28 -778 -40 -967 -15 -269 34 -516 99 -664 173
-209 104 -438 325 -529 510 -80 161 -112 356 -104 630 5 200 22 307 78 484 36
113 125 300 188 393 67 98 207 256 324 366 98 92 107 103 107 137 0 28 -6 42
-26 57 -40 32 -68 26 -126 -25z m2056 -1892 c32 -81 76 -189 98 -241 l39 -93
-32 -41 c-42 -52 -96 -159 -104 -206 -3 -20 -9 -41 -13 -47 -4 -6 -48 -31 -99
-56 -79 -40 -92 -44 -98 -30 -3 10 -65 167 -137 350 -71 183 -128 334 -127
336 2 1 63 28 134 59 72 31 159 69 195 86 36 17 70 30 75 30 6 1 36 -65 69
-147z m740 -352 c82 -32 171 -110 215 -190 35 -63 36 -69 36 -165 0 -90 -3
-106 -29 -158 -33 -66 -109 -140 -180 -176 -231 -114 -501 -30 -609 189 -28
58 -31 74 -31 150 1 93 17 142 72 217 39 53 138 121 211 144 80 26 234 21 315
-11z"/>
<path d="M4126 3298 c-37 -34 -39 -76 -4 -108 32 -29 81 -27 107 6 28 35 26
69 -4 99 -30 31 -66 32 -99 3z"/>
<path d="M3193 3280 c-40 -16 -56 -77 -30 -111 25 -33 54 -41 91 -25 59 24 62
102 6 131 -33 17 -36 17 -67 5z"/>
</g>
</svg>
